<?xml version="1.0" encoding="utf-8"?>
<!-- Generator: Adobe Illustrator 16.0.0, SVG Export Plug-In . SVG Version: 6.00 Build 0)  -->
<!DOCTYPE svg PUBLIC "-//W3C//DTD SVG 1.1//EN" "http://www.w3.org/Graphics/SVG/1.1/DTD/svg11.dtd">
<svg version="1.1" id="圖層_1" xmlns="http://www.w3.org/2000/svg" xmlns:xlink="http://www.w3.org/1999/xlink" x="0px" y="0px"
	 width="363.169px" height="83.999px" viewBox="0 0 363.169 83.999" enable-background="new 0 0 363.169 83.999"
	 xml:space="preserve">
<g>
	<g>
		<path fill-rule="evenodd" clip-rule="evenodd" fill="#FFFFFF" d="M151.552,17.408c-0.45,0.511-0.906,1.021-1.253,1.642
			c-0.368,0.094-0.77,0.313-1.145,0.546c-0.17,1.404-0.34,2.729-0.443,4.263c-0.02,0.393,0.048,0.773,0,1.147
			c-0.034,0.322-0.198,0.63-0.218,0.93c-0.013,0.191,0.068,0.373,0.055,0.547c-0.035,0.705-0.457,1.43-0.055,1.97
			c-0.102,1.461-0.082,2.771-0.545,3.878c0.137,0.872-0.293,1.662-0.654,2.464c-0.075,0.154-0.218,0.282-0.273,0.431
			c-0.177,0.487-0.129,0.849-0.498,1.151c0.375,0.525,0.743-0.101,1.261-0.271c0.115-0.046,0.246,0.027,0.381,0
			c0.586-0.13,1.159-0.737,1.588-0.821c0.123-0.025,0.307,0.057,0.437,0.054c0.791-0.024,2.241-0.729,3.114-0.277
			c1.281-0.23,2.031,0.375,2.896,0.822c0.552,1.312,2.406,1.315,2.46,3.116c-0.184,0.325-0.348,0.675-0.217,1.041
			c-0.375,0.31-0.526,0.786-0.982,1.036c-0.388,0.21-0.907,0.19-1.152,0.603c-0.994-0.112-1.37,0.845-2.679,0.6
			c-0.19,0.026-0.265,0.173-0.436,0.222c-3.516,0.111-6.61,0.064-9.404,1.094c-0.688-0.316-1.438,0.208-2.289,0.323
			c-0.15,0.02-0.314-0.038-0.437,0c-0.143,0.038-0.246,0.191-0.389,0.219c-0.191,0.044-0.348-0.033-0.545,0
			c-0.539,0.098-1.294,0.344-2.072,0.438c-0.13,0.063-0.15,0.216-0.279,0.273c0.157,0.941-0.089,1.843-0.218,2.68
			c-0.211,0.217-0.586,0.4-0.654,0.601c0.156,0.084,0.32,0.215,0.491,0.215c0.197,0.004,0.19-0.15,0.381-0.215
			c0.177-0.063,0.497-0.016,0.818-0.056c0.771-0.094,1.288-0.221,1.914-0.164c0.307,0.027,0.833-0.003,1.152-0.11
			c0.082-0.026,0.177-0.139,0.272-0.164c0.504-0.114,0.92,0.038,1.199-0.272c0.797,0.228,2.338-0.442,3.169-0.602
			c0.177-0.032,0.225,0.061,0.389,0.053c0.824-0.016,1.438-0.49,1.854-1.034c0.498-0.038,0.729-0.331,1.097-0.494
			c1.057,0.174,2.753-0.729,3.333,0.221c0.273,0.106,0.593,0.051,0.873,0.164c0.184,0.071,0.299,0.257,0.497,0.381
			c0.422,0.275,1.028,0.483,1.363,0.763c0.15,0.131,0.239,0.358,0.381,0.492c0.866,0.83,1.847,1.669,2.352,2.682
			c0.327,0.239,0.858,0.701,0.926,1.367c0.783,0.779,0.975,1.812,1.042,3.276c-0.333,0.245-0.477,0.812-0.49,1.202
			c-0.246,0.229-0.484,0.471-0.607,0.822c-0.429,0.241-0.933,0.408-1.145,0.871c0.164,0.883-0.422,1.304-0.6,1.86
			c-0.047,0.145,0.027,0.327,0,0.491c-0.054,0.284-0.259,0.56-0.334,0.821c-0.157,0.57-0.15,1.169-0.599,1.53
			c-0.185,1.146-0.736,1.917-1.036,2.952c-0.409,0.207-0.306,0.707-0.436,1.092c-0.226,0.647-0.675,1.299-1.152,1.644
			c-0.538,1.7-2.125,2.817-3.06,4.424c-1.022,0.854-1.786,1.806-3.06,2.3c-0.415,0.337-0.756,0.972-1.315,1.142
			c-0.151,0.049-0.321-0.029-0.491,0c-0.859,0.169-1.437,1.095-2.405,1.151c-0.613-0.114-1.432,0.121-2.126,0.054
			c-0.443-0.127-0.545-0.591-1.097-0.597c-0.662-0.818-1.629-1.554-2.243-2.244c-0.061-0.802-0.995-1.132-1.254-1.912
			c-0.64-0.602-0.954-1.37-1.369-2.08c-0.341-0.203-0.511-0.577-0.545-1.094c-0.307-0.204-0.361-0.654-0.436-1.094
			c0.252-0.266,0.594-0.556,0.981-0.652c0.47-0.12,0.995-0.043,1.533-0.057c1.24-0.032,2.48-0.11,3.442-0.545
			c0.307-0.404,0.701-0.719,1.042-1.097c0.232-0.94,0.886-1.336,1.2-2.293c0.149-0.052,0.204-0.195,0.326-0.273
			c0.695-1.636,2.004-2.946,2.515-4.59c0.11-0.111,0.205-0.237,0.328-0.33c0.047-0.617,0.396-1.111,0.491-1.583
			c0.524-0.356,0.402-1.348,0.879-1.748c0-0.876,1.164-2.38,1.199-3.392c0.041-1.059-1.465-0.285-2.181-0.547
			c-0.824,0.217-1.561,0.52-2.351,0.764c-0.149,0.114-0.184,0.336-0.333,0.44c-0.014,0.512,0.142,1.055,0.108,1.532
			c-0.047,0.857-0.777,1.312-0.817,2.183c-0.907,1.036-1.234,2.711-2.242,3.659c-0.027,0.136-0.075,0.252-0.055,0.439
			c-0.975,0.95-1.697,2.158-2.787,3.118c-0.935,1.465-2.194,2.616-3.441,3.768c-0.082,0.073-0.034,0.26-0.109,0.331
			c-0.313,0.268-0.613,0.554-0.98,0.768c-0.096,0.279-0.512,0.638-0.825,0.875c-0.47,0.873-1.302,1.524-2.133,2.185
			c-0.546,0.434-0.995,1.184-1.527,1.693c-0.272,0.262-0.593,0.479-0.933,0.654c-0.409,0.808-2.004,1.267-2.896,0.771
			c-0.083-0.607-0.083-1.489,0-2.083c1.342-1.648,2.513-3.198,4.156-4.589c0.218-0.631,0.865-0.954,1.253-1.476
			c1.083-1.425,2.174-2.9,2.951-4.427c0.382-0.169,0.613-0.483,0.934-0.709c0.027-0.518,0.545-0.714,0.764-1.096
			c0.17-0.297,0.218-0.607,0.436-0.931c0.19-0.271,0.347-0.551,0.661-0.765c0.586-1.375,1.602-2.333,2.453-3.444
			c0.143-0.664,0.499-1.109,0.77-1.639c-0.47-0.141-1.042,0.423-1.697,0.331c-0.143,0.313-0.368,1.043-0.491,1.367
			c-0.34,0.578-0.851,1.093-1.089,1.966c-0.743,1.082-1.424,2.217-2.685,2.786c-0.218,0.231-0.321,0.589-0.709,0.658
			c-0.627,1.124-2.147,1.44-2.733,2.46c-0.103,0.04-0.197,0.088-0.327,0.104c-0.674,0.833-1.294,1.729-2.508,2.024
			c-0.585,0.462-1.383,0.938-2.03,1.422c-0.532,0.402-0.941,0.841-1.854,0.762c-1.199-1.492,0.478-3.163,1.417-3.822
			c0.443-0.833,1.118-1.434,1.861-1.968c0.211-0.387,0.416-0.789,0.879-0.931c0.525-0.71,0.791-1.577,1.581-1.913
			c0.736-1.946,2.515-2.838,3.333-4.698c0-0.108-0.15-0.068-0.109-0.218c-0.641-0.36-1.282,0.004-1.806,0.218
			c-1.601,1.655-3.598,2.925-5.41,4.371c-0.417,0.079-0.812,0.168-1.146,0.327c-0.988-0.627-0.007-1.922,0.218-2.735
			c0.682-0.519,1.173-1.233,1.588-2.021c0.511-0.193,0.646-0.767,1.145-0.982c0.478-0.82,1.097-1.49,1.533-2.35
			c0.41-0.245,0.758-0.548,0.873-1.095c0.703-0.603,1.2-1.087,1.534-2.075c-0.321-0.01-0.361,0.26-0.552,0.384
			c-0.797,0.344-1.514-0.147-2.296-0.167c-0.308-0.307-0.757-0.342-1.091-0.541c-0.185-0.117-0.368-0.475-0.6-0.604
			c-0.15-0.082-0.327-0.016-0.436-0.113c-0.225-0.186-0.293-0.586-0.49-0.815c-0.3-0.326-0.75-0.553-1.097-0.819
			c-0.382,0.212-0.143,0.842-0.055,1.199c-0.354,0.841-0.055,1.882-0.163,2.735c-0.028,0.23-0.185,0.359-0.273,0.601
			c-0.13,0.337-0.144,0.752-0.273,0.985c-0.095,0.163-0.279,0.18-0.381,0.326c-0.136,0.186-0.272,0.691-0.491,0.929
			c-0.246,0.261-0.56,0.306-0.716,0.601c-0.45,0.003-0.907,0.044-1.309-0.054c-0.374-0.096-0.893-0.252-1.206-0.438
			c-0.92-0.554-1.159-1.903-2.126-2.405c-0.108-0.124,0.013-0.058,0.048-0.165c-0.668-0.386-0.518-1.589-1.473-1.695
			c-0.327,0.511-0.034,1.383-0.327,1.86c0.062,1.026,0.089,2.177-0.115,3.061c0.327,1.028,0.061,2.116,0,3.281
			c-0.042,0.92,0.279,1.871,0.17,2.787c-0.095,0.753,0.088,1.995,0,2.954c-0.021,0.217-0.184,0.43-0.218,0.657
			c-0.144,0.931-0.021,2.041-0.218,2.894c-0.225,0.941-0.109,1.962-0.163,2.896c-0.069,0.136-0.157,0.245-0.218,0.381
			c-0.068,1.047,0.164,2.414-0.444,3.061c-0.169,2.016-1.389,2.981-3.004,3.555c-0.401-0.137-0.96-0.174-1.254-0.272
			c-0.388-0.996-1.09-1.681-1.588-2.572c0.021-0.362-0.136-0.553-0.272-0.762c-0.177-1.204-0.668-2.104-0.927-3.226
			c0.341-0.627-0.354-1.179-0.279-1.912c0.048-0.418,0.396-0.555,0.334-1.093c0.272-0.056,0.286-0.366,0.545-0.439
			c0.123-0.515,0.299-0.979,0.654-1.255c0.014-0.746,0.702-1.27,0.982-1.912c-0.062-0.985,0.265-1.993,0.278-3.118
			c0.014-1.048-0.415-2.425,0.11-3.171c0.021-1.081,0.034-2.213,0-3.498c-0.013-0.376,0.123-0.829,0.102-1.255
			c-0.02-0.645-0.245-1.066,0.062-1.476c-0.286-2.06,0.184-3.995,0-5.904c0.042-0.14,0.136-0.23,0.218-0.328
			c-0.313-2.031,0.43-3.881-0.054-5.9c0.682-1.007-0.109-2.577,0.545-3.61c-0.211-0.975-0.347-2.022-0.817-2.731
			c0.395-0.674,1.445-0.406,2.188-0.383c0.559,0.73,1.11,1.469,1.915,1.969c0.307,0.731,0.941,1.134,1.199,2.019
			c0.218,0.756,0.362,1.711,0.545,2.461c-0.375,1.49-1.131,3.849-0.218,5.413c0.422-0.033,0.715,0.126,1.254,0.11
			c0.205-0.147,0.348-0.352,0.491-0.551c0.115-1.627-0.137-3.368,0.17-4.696c0.116-0.522-0.027-1.438,0-2.186
			c0.027-0.851,0.28-1.599,0-2.517c-0.395-0.41-1.199-0.581-1.806-0.601c-0.177-0.44-0.641-0.448-0.988-0.657
			c-0.239-0.151-0.375-0.451-0.6-0.602c-0.15-0.098-0.293-0.039-0.436-0.111c-0.307-0.149-0.689-0.48-0.927-0.709
			c-0.32-0.31-0.531-0.858-1.097-0.876c-0.211-0.567-0.601-1.194-1.091-1.308c0.089-0.534-0.572-0.774-0.934-1.045
			c-0.375-0.733-0.682-1.53-1.309-2.019c0.212-0.996-1.248-1.87-1.199-2.95c0.02-0.491,0.34-0.635,0.544-1.04
			c0.805,0.034,1.459,0.219,2.024,0.491c0.245-0.15,0.668-0.131,0.981-0.219c0.41-0.335,0.968-0.524,1.315-0.926
			c0.784-0.198,1.132-0.566,1.691-1.041c0.558-1.345,1.628-1.979,2.023-3.389c1.022-0.814,1.806-1.875,2.951-2.57
			c0.599,0.211,1.056-0.347,1.642-0.437c0.252-0.035,0.484,0.079,0.762,0.057c0.417-0.036,0.676-0.223,1.152-0.223
			c0.375,0,1.275,0.177,1.745,0.334c0.307,0.1,0.688,0.042,0.927,0.159c0.395,0.198,0.518,0.748,0.988,0.818
			c0.457,0.817,1.09,1.459,1.69,2.133c0.109,0.86,0.791,1.411,0.708,2.297c-0.027,0.382-0.245,0.711-0.272,1.203
			c-0.028,0.548-0.007,1.173,0,1.749c-0.171,0.208-0.259,0.508-0.484,0.657c-0.327,0.953-0.355,1.991-0.715,2.728
			c-0.178,0.371-0.614,0.636-0.763,1.045c-0.035,0.085,0.034,0.247,0,0.326c-0.11,0.218-0.348,0.375-0.437,0.603
			c-0.204,0.504-0.148,1.117-0.545,1.636c-0.082,0.173-0.013,0.183,0,0.385c-0.579,0.74-0.409,1.949-0.987,2.679
			c-0.117,0.821-0.035,1.712-0.165,2.565c-0.027,0.178-0.149,0.371-0.163,0.549c-0.082,0.91,0.034,1.86,0,2.787
			c-0.062,1.588,0.047,3.166,0.163,4.757c0.165,0.273,0.696,0.038,0.981,0.273c1.234-0.087,2.004-0.85,3.339-0.655
			c1.84-0.794,3.796-0.49,5.684-1.259c0.252-0.053,0.327,0.069,0.49,0.106c0.839-0.396,1.97-0.499,2.843-0.87
			c0.17-0.067,0.135,0.087,0.218,0.107c1.07-0.354,2.358-0.481,3.113-1.145c-0.306-0.582-0.592-1.188-1.417-1.259
			c-0.518,0.283-1.016,0.588-1.533,0.874c-0.797,0.098-1.957,0.247-2.351,0.928c-0.327,0.095-0.606,0.23-0.817,0.438
			c-0.757-0.278-0.797,0.594-1.526,0.326c-0.239-0.08-0.403-0.41-0.607-0.656c-0.518-0.616-1.193-1.094-1.199-1.909
			c-0.402-0.441-0.614-1.186-0.552-2.131c0.027-0.311,0.205-0.58,0.225-0.876c0.007-0.218-0.116-0.432-0.116-0.655
			c0.021-0.671,0.28-1.362,0.062-2.081c0.013-0.178,0.156-0.238,0.219-0.378c-0.096-0.902,0.19-1.919-0.164-2.788
			c0.327-0.874-0.007-2.13,0-3.172c0-0.656,0.014-1.404,0-2.13c-0.007-0.281-0.034-0.679,0-0.926c0.021-0.18,0.15-0.328,0.164-0.493
			c0.061-0.966-0.382-2.233-0.109-3.282c-0.089-0.116-0.096-0.308-0.225-0.382c0.252-0.691-0.307-1.568-0.266-2.188
			c0.007-0.196,0.204-0.384,0.211-0.6c0.035-0.779-0.873-1.803-0.109-2.567c0.572-0.578,1.506-0.251,2.133,0.052
			c0.245,0.118,0.58,0.217,0.763,0.327c0.109,0.065,0.198,0.313,0.329,0.384c0.135,0.075,0.264-0.005,0.333,0.057
			c0.287,0.245,0.416,0.71,0.655,0.822c0.388-0.015,0.594-0.077,0.818-0.331c0.13,0,0.26,0,0.382,0
			c1.376-0.943,3.08-1.288,4.483-2.242c0.211,0.011,0.389,0.047,0.546,0.113c0.873-0.482,2.296-0.838,3.448-0.658
			c1.008,0.157,1.656,0.849,2.235,1.149c0.144,0.523,0.784,0.852,1.098,1.365c0.587,0.196,0.981,0.586,1.424,0.931
			c1.588,0.09,1.561,1.873,2.46,2.837C151.464,16.594,151.566,16.944,151.552,17.408z M137.072,16.042
			c-0.144,0.226-0.307,0.429-0.499,0.604c-0.006,0.79,0.185,1.263-0.047,1.967c-0.157,0.455-0.62,0.82-0.764,1.257
			c-0.123,0.366-0.123,0.983,0.109,1.363c0.701,0.047,1.472-0.493,2.29-0.43c0.517,0.033,1.349,0.288,1.642,0.601
			c0.184,0.19,0.095,0.503,0.382,0.651c0.163-0.233,0.259-0.875,0.055-1.146c0.265-0.454,0.401-1.125,0.436-1.75
			c0.028-0.412-0.217-0.953-0.164-1.421c0.042-0.303,0.239-0.501,0.219-0.767c-0.007-0.147-0.137-0.285-0.163-0.436
			c-0.103-0.557,0.026-1.224-0.219-1.694C139.013,14.998,138.128,15.608,137.072,16.042z M138.434,28.396
			c-0.251,0.11-0.456,0.269-0.763,0.327c-0.627-0.241-1.016-0.735-1.909-0.712c0.042,0.905-0.129,1.949-0.115,2.951
			c0.647-0.044,1.369-0.075,1.969-0.378c0.15-0.079,0.136-0.2,0.272-0.276c0.511-0.283,1.132,0.224,1.697,0
			c0.177-0.068,0.245-0.271,0.436-0.44c-0.17-1.499,0.613-3.072-0.054-3.985C139.354,26.613,138.475,27.088,138.434,28.396z"/>
		<path fill-rule="evenodd" clip-rule="evenodd" fill="#FFFFFF" d="M209.825,28.339c0.614-0.106,1.636-0.304,1.962,0.326
			c1.269,0.011,1.555,1.006,2.352,1.48c0.389,0.888,0.683,2.103,0.764,3.117c-0.252,1.129-1.117,1.646-1.963,2.183
			c-0.334-0.123-0.531,0.094-0.879,0.11c-1.396,1.128-3.488,0.907-5.465,1.476c-0.178,0.069-0.04-0.178-0.219-0.107
			c-0.191,0.026-0.313,0.117-0.545,0.107c-0.599,0.514-1.342,0.884-1.86,1.474c-0.313-0.049-0.409,0.104-0.544,0.224
			c-0.936-0.144-2.428,0.93-3.442,0.377c-1.078,0.069-2.079-0.081-2.841-0.269c-0.601-0.539-1.316-0.899-2.025-1.149
			c-0.156-0.483-0.763-0.518-1.097-0.82c0.048-0.612-0.593-0.712-1.036-1.09c-0.047-0.045-0.013-0.175-0.055-0.222
			c-0.225-0.262-0.817-0.569-0.926-0.821c-0.042-0.081-0.219-0.865-0.219-0.926c0-0.219,0.211-0.758,0.327-0.931
			c0.348-0.504,1.321-0.576,1.745-1.038c0.974,0.138,1.839-0.316,2.678-0.437c0.586-0.091,1.205,0.026,1.75-0.11
			c0.614-0.159,1.119-0.578,1.746-0.708c0.756-0.161,1.67-0.276,2.522-0.549c0.08-0.119,0.229-0.168,0.325-0.272
			c0.512-0.031,0.777-0.045,1.146-0.273c0.162,0,0.326,0,0.489,0c0.682-0.344,1.888-0.155,2.242-0.825
			C207.563,28.355,209.095,27.566,209.825,28.339z"/>
		<path fill-rule="evenodd" clip-rule="evenodd" fill="#FFFFFF" d="M204.789,38.946c0.682,0.204,1.303-0.26,1.752-0.054
			c0.947-0.537,2.583-0.762,3.387-1.095c0.443-0.045,0.777,0.136,1.098,0.051c0.477,0.526,1.423,0.252,1.859,0.824
			c0.531-0.01,1.098-0.026,1.582,0.056c0.865,0.135,1.328,0.732,1.753,1.257c0.154,0.55,0.292,1.121,0.597,1.531
			c-0.244,0.608,0.392,0.974,0.384,1.525c0,0.407-0.49,1.189-0.929,1.479c-0.299,0.194-0.646,0.204-0.878,0.492
			c-0.212,0.266-0.204,0.608-0.437,0.983c-0.136,0.226-0.859,0.997-1.145,1.151c-0.361,0.176-0.913,0.1-0.982,0.432
			c-0.572,0.072-1.205,0.061-1.914,0.165c-0.422,0.063-0.852,0.351-1.315,0.384c-0.204,0.011-0.47-0.116-0.817-0.056
			c-0.763,0.127-1.697,0.224-2.352,0.493c-1.403-0.383-2.549,0.712-3.822,0.494c-0.273,0.293-0.635,0.293-1.044,0.377
			c-0.462,0.104-0.966,0.375-1.423,0.44c-0.17,0.024-0.402-0.068-0.601-0.056c-1.233,0.08-2.371-0.01-3.55-0.329
			c-0.764-0.673-1.936-0.939-2.352-1.965c-0.688-0.518-1.206-1.103-1.473-1.913c-0.871-0.396-1.267-1.257-0.933-2.459
			c0.524-0.753,1.608-0.944,2.468-1.371c0.619,0.206,1.402-0.271,2.18-0.268c0.334-0.087,0.605-0.385,0.98-0.388
			c0.057,0,0.158,0.119,0.227,0.113c0.319-0.047,0.803-0.166,1.145-0.279c0.149-0.044,0.252-0.17,0.382-0.214
			c0.143-0.047,0.333-0.011,0.497-0.057c0.272-0.076,0.463-0.248,0.762-0.271c0.144-0.017,0.172,0.096,0.328,0.109
			c0.947,0.077,2.304-0.831,3.225-0.604C203.964,39.687,204.339,39.27,204.789,38.946z"/>
		<path fill-rule="evenodd" clip-rule="evenodd" fill="#FFFFFF" d="M222.227,59.002c-0.523-0.11-0.79,0.419-1.313,0.549
			c-0.605,0.152-1.417,0.013-1.8,0.439c-0.796,0.935-2.073,1.586-2.516,2.838c-0.531,0.184-0.729,0.693-1.035,1.095
			c-0.055,0.735,0.374,0.675,0.872,1.041c0.26,0.188,0.274,0.454,0.546,0.379c0.498,0.634,1.437,0.828,1.744,1.64
			c-0.143,0.462,0.183,0.858,0.389,1.149c0.008,0.663,0.21,1.334,0,1.913c-0.162,0.443-0.585,0.683-0.817,1.04
			c-0.75,0.199-1.643,0.671-2.686,0.604c-0.233-0.018-0.415-0.182-0.654-0.166c-0.511,0.032-0.887,0.488-1.363,0.544
			c-1.336,0.097-2.555-0.264-3.721-0.11c-0.217,0.035-0.402,0.194-0.599,0.22c-0.497,0.067-0.792-0.223-1.31-0.22
			c-0.79,0.01-1.512,0.478-2.297,0.545c-0.695,0.068-1.58-0.017-2.188-0.161c-0.313,0.224-0.6,0.139-1.09,0.161
			c-1.451,0.965-3.537,1.374-5.629,1.095c-1.192-0.477-2.16-0.852-3.121-1.529c-0.79-1.883-1.684-3.562-2.732-5.244
			c-0.048-0.096-0.191-0.1-0.273-0.164c-0.326-0.709-0.633-1.472-1.035-2.191c-0.204-0.364-0.313-0.471-0.49-0.927
			c-0.145-0.338-0.361-0.65-0.498-0.985c-0.231-0.581-0.238-1.265-0.764-1.691c-0.197-0.786-0.354-1.313-0.709-1.968
			c0.117-0.779-0.408-1.328-0.544-2.022c-0.116-1.244,0.483-1.97,0.708-2.787c0.021-0.097-0.041-0.236,0-0.327
			c0.164-0.407,0.676-0.727,0.6-1.313c0.463-0.146,0.955-0.66,1.479-0.983c0.694-0.435,1.274-0.271,1.962,0.16
			c0.824-0.147,1.438-0.054,2.242,0.056c0.593,0.476,1.35,0.799,2.133,1.203c1.234-0.374,3.053-0.801,4.375-0.985
			c0.954-0.336,2.188-0.854,3.223-0.764c1.527-0.688,3.381-0.82,5.084-1.366c0.369-0.117,0.641-0.176,1.2-0.217
			c1.023-0.075,1.833-0.28,2.63-0.709c1.466-0.804,3.428-0.984,4.695,0.433c1.077,0.313,1.604,1.165,2.461,1.695
			c0.19,0.521,0.402,0.965,0.981,1.204c0.28,0.426,0.403,0.958,0.764,1.31c0.149,0.143,0.394,0.184,0.552,0.33
			c0.51,0.491,0.573,1.284,1.143,1.748c0.098,0.76,0.725,1.37,0.386,2.077C223.004,58.078,222.412,58.439,222.227,59.002z
			 M206.376,55.236c-0.123-0.175-0.49-0.096-0.763-0.112c-0.804,0.403-1.827,0.578-2.298,1.313
			c-1.553,0.541-2.363,2.439-3.993,2.896c-0.477,0.755-1.321,1.148-1.962,1.747c-0.367,0.839-0.021,1.567,0.163,2.298
			c0.103,0.419,0.034,0.946,0.437,1.146c0.893-0.343,1.833-0.403,3.115-0.324c0.285-0.334,0.789-0.48,1.098-0.822
			c0.148-0.172,0.148-0.497,0.318-0.767c0.232-0.347,0.717-0.588,0.88-0.874c0.185-0.338,0.177-0.721,0.382-1.038
			c0.17-0.265,0.484-0.475,0.654-0.762c0.169-0.28,0.225-0.604,0.436-0.877c0.361-0.446,0.879-0.817,0.879-1.534
			c0.525-0.871,1.664-1.267,2.018-2.566C207.242,54.693,206.691,54.981,206.376,55.236z"/>
		<path fill-rule="evenodd" clip-rule="evenodd" fill="#FFFFFF" d="M188.883,23.368c0.491,0.255,1.022-0.146,1.479-0.219
			c0.313-0.044,0.674,0.045,0.98,0c0.565-0.083,0.968-0.419,1.588-0.548c0.437-0.089,0.996-0.218,1.37-0.276
			c0.375-0.055,0.858,0.129,1.146-0.164c0.701,0.051,1.097-0.214,1.416-0.545c0.199-0.6,0.021-1.218,0.164-1.692
			c0.063-0.178,0.232-0.232,0.334-0.38c0.204-0.327,0.32-0.711,0.545-0.987c0.021-1.452,0.818-3.101,0.273-4.426
			c0.061-0.455,0.17-0.853,0.107-1.199c-0.053-0.342-0.354-0.68-0.436-1.044c-0.033-0.149,0.049-0.254,0-0.381
			c-0.129-0.313-0.518-0.675-0.824-0.928c-0.143-0.13-0.367-0.146-0.49-0.329c-0.279-0.433,0.014-0.932,0-1.531
			c0.149-0.169,0.395-0.269,0.49-0.439c0.225-0.375,0.164-0.901,0.497-1.144c0.116-0.089,0.341-0.12,0.491-0.22
			c0.777-0.532,2.283-0.87,3.332-0.38c1.384-0.28,2.371,0.477,3.334,0.763c0.764,0.226,1.457,0.208,2.077,0.601
			c0.151,0.094,0.245,0.286,0.382,0.38c0.505,0.352,1.084,0.566,1.643,0.985c0.129,0.021,0.203,0.09,0.381,0.054
			c0.123,0.143,0.239,0.25,0.381,0.386c0.096,0.087,0.227,0.304,0.328,0.382c0.131,0.1,0.361,0.059,0.491,0.164
			c0.103,0.075,0.115,0.295,0.225,0.382c0.368,0.317,0.88,0.441,1.146,0.765c0.115,0.144,0.137,0.358,0.272,0.548
			c0.224,0.312,0.401,0.431,0.661,0.875c0.21,0.367,0.334,0.681,0.482,1.038c0.185,0.427,0.436,0.692,0.227,1.258
			c0.039,0.24,0.15,0.363,0.162,0.544c0.096,1.415-1.035,1.796-1.914,2.462c-0.41,0.306-1.104,0.996-0.818,1.584
			c1.772,0.022,3.775,0.132,4.484-1.313c0.6-0.129,1.377-0.4,2.125-0.491c0.641-0.073,1.514-0.187,2.081-0.054
			c0.258,0.061,0.477,0.345,0.762,0.438c0.19,0.059,0.429-0.007,0.6,0.053c0.525,0.181,1.002,0.604,1.317,0.874
			c1.042,0.098,1.395,1.231,2.35,1.59c0.143,0.557,0.428,1.131,0.381,2.02c-0.014,0.26-0.19,0.486-0.219,0.764
			c-0.062,0.638,0.109,1.284-0.162,1.803c-0.319,0.286-0.642,0.562-1.042,0.768c-1.596,0.173-3.373,1.088-5.133,0.711
			c-1.125,0.585-2.739-0.514-3.769-0.494c-0.26,0.008-0.457,0.18-0.716,0.218c-0.362,0.056-0.722-0.099-1.151-0.108
			c-0.613-0.012-1.281,0.268-1.799,0.272c-0.477,0.006-0.953-0.238-1.426-0.215c-0.25,0.006-0.455,0.174-0.707,0.215
			c-0.538,0.085-1.111-0.008-1.643,0.054c-0.682,0.085-1.316,0.357-2.018,0.494c-0.756,0.148-1.553,0.135-2.304,0.272
			c-0.524,0.1-1.009,0.38-1.526,0.49c-1.09,0.251-2.27,0.195-3.113,0.877c-0.88,0.058-1.016,0.215-1.752,0.381
			c-0.17,0.134-0.279,0.338-0.436,0.495c-0.688,0.121-1.207,0.9-2.024,0.544c-0.661,0.236-1.146,0.623-1.962,0.44
			c-0.43-0.095-0.791-0.494-1.262-0.712c-0.524-0.25-1.069-0.076-1.309-0.601c-0.66,0.03-0.926-0.389-1.314-0.711
			c-0.096-0.083-0.327-0.072-0.437-0.164c-0.108-0.092-0.062-0.205-0.163-0.276c-0.566-0.387-1.207-0.501-1.533-1.145
			c-0.443,0.026-0.654-0.581-1.2-0.49c-0.102,0.014-0.572,0.41-0.709,0.599c-0.456,0.609-0.94,1.421-1.37,2.241
			c-0.163,0.307-0.517,0.598-0.544,1.041c-0.068,0.961,0.804,1.519,0.817,2.348c-0.123,0.473,0.014,0.907,0,1.366
			c-0.007,0.185-0.144,0.313-0.163,0.495c-0.103,0.837,0.197,1.974-0.056,2.894c-0.272,0.979-0.013,2.298-0.272,3.389
			c0.204,1.892,0.13,3.348,0.055,5.14c0.007,0.193,0.157,0.244,0.163,0.435c-0.025,0.224-0.143,0.439-0.163,0.654
			c-0.122,1.15,0.212,2.347,0.163,3.395c-0.014,0.266-0.197,0.536-0.218,0.816c-0.06,0.726,0.109,1.499,0.055,2.243
			c-0.02,0.297-0.184,0.592-0.218,0.871c-0.096,0.823-0.089,2.42,0.163,3.335c-0.06,1.095-0.067,2.308-0.108,3.554
			c-0.014,0.481-0.178,0.982-0.163,1.477c0.007,0.43,0.184,0.841,0.163,1.255c-0.014,0.273-0.205,0.551-0.218,0.82
			c-0.027,0.367,0.149,0.772-0.109,1.095c0.572,1.709-0.831,3.109-0.981,4.92c-0.36,0.541-0.742,1.165-1.533,1.584
			c-0.074,0.041-0.197,0.015-0.273,0.054c-0.455,0.266-0.844,0.729-1.253,0.764c-0.456,0.041-0.805-0.263-1.206-0.327
			c-0.676-1.332-1.493-2.48-1.697-4.1c-0.286-0.278-0.478-0.65-0.817-0.871c0.163-0.464-0.252-0.868-0.327-1.312
			c-0.055-0.323,0.137-0.669-0.108-0.932c0.258-0.634,0.572-1.222,0.326-2.074c0.15-0.335,0.429-0.614,0.327-1.043
			c0.586-0.419,0.437-1.265,1.036-1.688c-0.055-0.878,0.968-1.393,0.764-2.41c0.062-0.123,0.129-0.236,0.17-0.382
			c-0.151-2.188-0.151-4.468,0.272-6.505c-0.184-0.296-0.212-0.842-0.055-1.203c-0.266-1.229,0.014-2.681,0.055-4.094
			c0.021-0.822-0.156-1.631-0.164-2.465c-0.014-1.434-0.027-3.168,0.164-4.754c-0.231-1.292-0.035-2.575-0.219-4.103
			c-0.64-0.069-0.879,0.257-1.206,0.494c-0.668-0.021-1.771,0.524-2.678,0.164c-0.538-0.745-1.152-1.434-1.689-2.183
			c0.203-0.757-0.342-1.079-0.328-1.804c-0.354-0.838-0.661-2.164-0.225-3.117c-0.313-0.947,0.389-1.364,0.717-2.075
			c0.088-0.197,0.081-0.438,0.162-0.604c0.239-0.508,0.695-0.94,1.036-1.147c0.716-1.292,1.683-2.322,2.133-3.88
			c0.519-0.54,0.804-1.418,1.146-1.913c0.755-1.07,1.622-1.969,2.024-3.28c0.395-0.195,0.367-0.671,0.544-1.037
			c0.083-0.152,0.253-0.227,0.335-0.385c0.265-0.552,0.17-1.172,0.375-1.748c0.224-0.591,0.783-0.834,0.877-1.367
			c0.104-0.608-0.251-1,0-1.528c0.267-0.56,1.527-1.095,2.244-0.931c0.387,0.088,0.722,0.348,1.09,0.436
			c0.735,0.179,1.438,0.216,2.023,0.659c0.3,0.412,0.621,0.8,1.145,0.985c0.832,1.204,1.697,2.38,2.904,3.223
			c0.796,1.146,1.724,2.101,1.635,3.936c0.034,0.165,0.117,0.285,0.163,0.436c-0.115,0.832,0.11,1.588-0.054,2.246
			c-0.123,0.518-0.553,0.889-0.6,1.421C189.824,22.594,189.204,22.825,188.883,23.368z"/>
	</g>
	<g>
		<path fill-rule="evenodd" clip-rule="evenodd" fill="#FFFFFF" d="M355.066,13.275c0.094,0.616-0.116,1.168-0.383,1.642
			c-0.176,0.297-0.422,0.691-0.66,0.979c-0.534,0.654-1.357,1.278-1.8,2.023c-0.171-0.037-0.165,0.094-0.333,0.055
			c-0.977,1.276-2.352,1.813-3.49,2.896c-0.607,0.323-1.179,0.69-1.812,0.984c-0.778,0.366-1.527,0.68-2.407,1.041
			c-0.414-0.222-0.803,0.008-1.198,0c-0.424-0.007-0.806-0.28-1.198-0.326c-0.343-0.048-0.724,0.077-0.988,0
			c-0.433-0.131-0.981-0.63-1.472-0.821c-0.206-0.08-0.371-0.041-0.492-0.113c-0.219-0.119-0.335-0.419-0.607-0.601
			c-0.212-0.138-0.539-0.207-0.764-0.436c-0.093-0.099-0.115-0.297-0.216-0.38c-0.254-0.203-0.642-0.251-0.875-0.441
			c-0.115-0.089-0.157-0.278-0.271-0.38c-0.56-0.491-1.131-0.67-1.317-1.478c-0.052-0.181-0.291-0.174-0.387-0.327
			c-0.056-0.268-0.104-0.545-0.212-0.765c-0.457-0.305-0.39-0.718-0.6-1.532c-0.087-0.325-0.333-0.685-0.389-0.984
			c-0.202-1.249-0.026-2.48,0.771-2.787c0.899-0.073,1.266,0.675,2.24,0.383c0.321-0.1,0.654-0.44,0.982-0.545
			c0.162-0.052,0.327-0.011,0.437-0.055c0.279-0.113,0.652-0.311,0.935-0.494c0.224-0.144,0.373-0.401,0.591-0.545
			c0.915-0.577,2.119-0.944,3.067-1.473c0.3-0.339,0.613-0.662,1.036-0.88c1.301-1.72,4.185-1.849,6.61-1.639
			c0.846,0.246,1.24,0.897,2.14,0.984c0.224,0.212,0.395,0.478,0.811,0.491c0.308,0.396,0.742,0.88,1.098,1.043
			c0.137,0.429,0.395,0.731,0.714,0.982c0.056,0.805,1.098,1.792,0.818,3.114C355.386,13.092,355.125,13.081,355.066,13.275z"/>
		<path fill-rule="evenodd" clip-rule="evenodd" fill="#FFFFFF" d="M322.49,41.809c-0.203,0.494-0.073,0.933-0.054,1.473
			c0.008,0.334-0.149,0.651-0.171,0.984c-0.02,0.361,0.067,0.698,0.062,1.035c-0.027,0.715-0.335,1.429-0.381,2.246
			c-0.014,0.163,0.046,0.33,0.046,0.49c-0.006,1.275-0.217,2.505-0.217,3.659c0,0.55,0.123,1.198,0.117,1.698
			c-0.027,0.657-0.404,1.355,0.054,1.966c-0.225,1.553,0.341,3.226,0.046,4.593c-0.094,0.46,0.164,1.172,0.17,1.748
			c0,0.511-0.059,0.912-0.17,1.313c-0.155,0.596,0.097,1.618-0.217,2.351c-0.177,0.418-0.865,0.764-1.256,1.201
			c-0.154,0.171-0.188,0.427-0.325,0.604c-0.089,0.099-0.225,0.071-0.335,0.159c-0.313,0.301-0.44,0.786-0.925,1.039
			c-0.109,0.767-0.778,0.975-1.262,1.368c-0.35,0.11-0.771,0.227-1.084,0.217c-0.537-0.507-1.235-0.854-1.643-1.529
			c-0.177-0.283-0.47-0.3-0.442-0.711c-0.47-0.254-0.607-0.854-1.089-1.094c-0.062-0.481-0.177-0.915-0.438-1.201
			c-0.094-0.512-0.088-1.536-0.437-1.97c-0.1-1.315-0.04-2.436,0.385-3.604c0.51-0.202,0.543-0.876,0.927-1.203
			c0.006-4.025,0.106-6.887,0.387-10.768c-0.3-0.023-0.573,0.127-0.771,0.272c-0.504,0.375-0.96,1.003-1.315,1.477
			c-0.148,0.043-0.143-0.079-0.271-0.057c-0.554,0.922-1.948,1.51-3.224,1.362c-0.953-0.104-2.181,0.021-2.727-0.599
			c0.063-0.471-0.087-1.138-0.28-1.529c0.227-0.996,0-2.138,0.717-2.624c0.027-0.371,0.117-0.423,0.102-0.767
			c1.049-1.441,1.508-3.492,3.12-4.586c0.044-0.156,0.063-0.34,0.111-0.493c1.221-0.904,1.832-2.434,3.06-3.335
			c0.429-0.904,0.925-1.812,1.581-2.623c0.038-0.17,0.038-0.105,0-0.271c0.782-0.57,1.144-1.559,1.588-2.463
			c-0.159-0.337-0.717-0.561-0.982-0.602c-0.498-0.377-0.885-0.776-1.479-0.931c-0.722-0.804-1.587-1.475-2.133-2.46
			c0-0.772-0.573-1.735-0.66-2.733c-0.042-0.49-0.294-0.865-0.375-1.252c-0.157-0.747-0.131-1.545,0.49-1.698
			c-0.028-0.171,0.104-0.19,0.054-0.381c0.839-0.818,1.18-2.14,2.133-2.843c0.391-0.909,1.214-1.601,1.472-2.463
			c0.342-0.235,0.655-0.63,0.663-1.035c0.537-0.154,0.593-0.678,0.817-1.096c0.354-0.638,1.077-1.117,1.308-1.91
			c0.226-0.201,0.424-0.416,0.606-0.654c0.09-0.196-0.008-0.27,0.048-0.438c0.266-0.236,0.429-0.562,0.663-0.818
			c0.031-0.805,0.742-1.581,0.708-2.518c-0.027-0.811,0.073-1.658,1.198-1.418c0.232,0.047,0.396,0.29,0.661,0.438
			c0.812,0.431,1.702,0.566,2.133,1.368c0.123-0.006,0.162,0.091,0.327,0.052c0.355,0.459,0.838,0.8,1.308,1.144
			c0.027,0.106,0.159,0.104,0.117,0.276c0.806,0.598,1.111,1.686,2.234,1.967c0.246,0.301,0.375,0.718,0.825,0.82
			c0.81,0.944,1.41,2.307,1.964,3.336c-0.097,0.717,0.312,1.204,0.225,1.857c-0.02,0.104-0.117,0.436-0.171,0.545
			c-0.089,0.184-0.319,0.246-0.437,0.439c-0.089,0.137-0.063,0.378-0.165,0.545c-0.243,0.4-0.722,0.979-1.145,1.259
			c-0.271,0.653-0.851,1.012-1.097,1.692c-1.219,1.091-2.248,2.383-3.713,3.227c-0.266,0.45-0.71,0.862-0.606,1.423
			c0.116,0.551,0.933,0.758,1.097,1.252c0.423,0.055,0.73,0.319,1.036,0.767c0.375,0.54,0.319,1.128,0.77,1.695
			c-0.069,0.338,0.15,0.5,0.056,0.712c0.652,0.793,0.658,2.299,0.325,3.39c-0.49,0.636-0.79,1.433-1.315,2.021
			c-0.046,0.051-0.286,0.132-0.27,0.108c-0.069,0.092-0.056,0.249-0.109,0.33c-0.091,0.129-0.281,0.143-0.383,0.272
			c-0.056,0.072-0.042,0.229-0.109,0.327c-0.129,0.197-0.49,0.399-0.71,0.656c-0.183,0.215-0.264,0.284-0.49,0.492
			c-0.225,0.201-0.387,0.674-0.605,0.981c-0.162,0.242-0.347,0.27-0.375,0.44C321.713,40.899,322.363,41.205,322.49,41.809z"/>
		<path fill-rule="evenodd" clip-rule="evenodd" fill="#FFFFFF" d="M362.875,31.8c-0.45,0.199-0.968,0.347-1.037,0.935
			c-1.635,1.005-3.552,1.092-5.348,1.967c-0.146-0.009-0.273-0.034-0.337-0.108c-0.836,0.397-2.131,0.347-2.95,0.762
			c-0.121-0.099-0.401-0.037-0.598-0.054c-0.679,0.436-1.732,0.494-2.244,1.095c0.361,0.818,0.615,1.406,0.49,2.459
			c-0.095,0.873-1.097,1.462-0.49,2.297c-0.129,0.854,0.302,2.046,0.327,3.114c0.04,0.188-0.226,0.068-0.164,0.273
			c0.24,1.031,0.452,2.241,0.327,3.221c-0.018,0.244,0.131,0.305,0.165,0.494c-0.107,1.099,0.012,1.91-0.056,2.844
			c0.067,0.898,0.456,1.469,0.383,2.515c-0.042,0.14-0.179,0.183-0.219,0.33c0.238,1.097-0.216,2.122,0.171,2.893
			c-0.117,0.739-0.218,2.171,0.048,3.01c-0.573,0.864,0.387,2.779-0.219,3.823c0.32,0.806,0.443,2.303-0.273,2.786
			c-0.462,2.889-3.23,3.896-4.859,5.796c-0.66,0.123-1.252,0.566-1.478,0.928c-0.131,0.023-0.204,0.091-0.381,0.058
			c-0.859,0.489-2.496,1.343-3.723,0.819c-0.66-0.286-0.863-1.045-1.478-1.314c0-0.701-0.538-1.08-1.09-1.639
			c-0.669-0.675-1.167-1.25-1.69-2.021c-0.764-0.736-1.097-1.901-1.861-2.627c0.028-0.236-0.108-0.416-0.218-0.65
			c-0.102-0.232-0.135-0.579-0.271-0.82c-0.102-0.176-0.34-0.26-0.437-0.438c-0.261-0.467-0.129-1.158-0.661-1.421
			c-0.02-0.605,0.048-1.396,0.554-1.752c0.442-0.184,0.775,0.322,1.252,0.328c0.41,0.003,0.722-0.349,1.145-0.438
			c0.431-0.092,0.899,0.075,1.369,0.056c0.246-0.011,0.518-0.147,0.764-0.168c0.798-0.057,1.438,0.208,1.971-0.16
			c0.216-0.455-0.104-0.912,0.271-1.256c-0.033-0.914-0.081-2.423,0.109-3.227c-0.258-0.981,0.02-1.995,0.056-3.062
			c0.027-0.803-0.177-1.655-0.221-2.459c-0.012-0.263,0.069-0.514,0.056-0.767c-0.012-0.285-0.183-0.552-0.216-0.817
			c-0.063-0.444,0.081-0.869,0.06-1.258c-0.04-0.433-0.199-0.801,0.156-1.149c-0.21-0.938-0.006-1.965,0-3.004
			c0-0.408-0.238-0.853-0.271-1.259c-0.054-0.652,0.089-1.257,0.216-1.806c-0.306-0.337,0.056-1.153-0.16-1.528
			c-0.663-0.556-2.04-0.277-2.897-0.437c-0.683,0.459-2.051,2.001-3.014,1.144c-1.464-0.16-2.315-1.379-3.55-1.962
			c-0.435-0.814-0.702-1.567-1.472-1.973c-0.415-0.996-1.063-1.788-1.252-2.95c-0.028-0.134,0.031-0.301,0-0.437
			c-0.105-0.356-0.385-0.613-0.282-1.036c0.098-0.391,0.73-0.797,1.254-0.879c0.219-0.03,0.453,0.044,0.663,0
			c0.538-0.106,1.145-0.518,1.752-0.707c0.148-0.05,0.304-0.009,0.427-0.057c0.702-0.253,1.76-0.623,2.46-0.98
			c0.827,0.095,1.48-0.572,2.25-0.768c0.417-0.109,0.838-0.011,1.092-0.33c1.123-0.175,2.52-0.536,3.385-1.146
			c1.125-0.014,2.222-0.688,3.448-0.599c0.484-0.262,1.623-0.583,2.236-0.768c0.313-0.092,0.641-0.036,0.926-0.109
			c0.578-0.141,1.315-0.625,2.142-0.657c0.823-0.503,1.993-0.725,3.16-1.038c0.444-0.116,0.838-0.46,1.315-0.491
			c0.838-0.051,2.169,0.081,2.788,0.44c0.593-0.065,0.879,0.285,1.369,0.158c0.327,0.336,0.777,0.145,1.315,0.332
			c0.271,0.096,0.573,0.455,0.864,0.653c0.328,0.218,0.744,0.354,0.988,0.549c0.348,0.273,0.465,0.831,0.929,0.981
			c0.169,0.414,0.354,0.814,0.552,1.205c-0.165,0.88,0.415,1.354,0.49,2.023C363.229,30.284,363.017,31.239,362.875,31.8z"/>
		<path fill-rule="evenodd" clip-rule="evenodd" fill="#FFFFFF" d="M247.657,55.033c0.322-0.361,0.015-1.031,0.054-1.586
			c0.022-0.275,0.146-0.521,0.165-0.767c-0.171-0.247-0.135-0.697-0.319-0.926c-1.963-0.342-2.623-1.478-4.484-1.914
			c-0.537-0.645-1.167-1.212-1.97-1.587c-0.3-0.854-1.076-1.378-1.315-2.241c-0.272-1,1.172-0.763,1.807-1.039
			c0.58-0.251,0.796-0.684,1.205-0.98c0.363,0.133,1.085-0.528,1.527-0.821c0.538-0.354,0.891-0.967,1.417-1.094
			c0.117-0.106,0.183-0.259,0.279-0.38c0.73-0.21,1.363-0.707,1.254-1.591c-0.817-0.397-1.268-1.169-2.023-1.635
			c-0.677-0.814-0.915-1.733-1.527-2.567c-0.409-0.016-0.563-0.274-0.817-0.441c-0.804,0.458-0.798,1.724-1.588,2.188
			c-0.027,0.152-0.081,0.286-0.109,0.437c-0.72,0.378-0.662,1.512-1.371,1.753c-0.462,0.604-0.706,1.429-1.313,1.909
			c0.04,0.101-0.156,0.23,0,0.273c-0.635,0.515-0.954,1.425-1.418,2.13c-0.346,0.537-1.014,0.964-1.363,1.588
			c-0.141,0.255-0.171,0.574-0.325,0.821c-0.444,0.143-0.913,0.83-1.534,0.82c-0.716-0.017-0.702-0.504-0.543-1.097
			c0.176-0.688,0.317-1.676,0.924-2.021c-0.014-0.202-0.067-0.21,0-0.383c0.546-0.902,0.94-1.886,1.536-2.841
			c-0.016-0.385,0.285-0.869,0.597-1.098c0-0.698,0.636-1.192,0.935-1.856c0.109-0.256,0.088-0.613,0.219-0.87
			c0.089-0.192,0.277-0.309,0.375-0.496c0.339-0.616,0.448-1.421,0.988-1.857c0-0.992,0.918-1.435,0.871-2.46
			c0.176-0.203,0.321-0.45,0.491-0.654c0.136-0.818,0.711-1.349,0.933-2.023c0.129-0.391,0.022-0.9,0.49-1.148
			c0.151-1.275,1.104-2.259,1.371-3.338c0.204-0.247,0.306-0.594,0.538-0.816c-0.096-0.333,0.177-0.67,0.335-0.925
			c-0.014-0.517,0.177-0.804,0.435-1.045c0.137-0.483,0.204-1.035,0.607-1.255c0.081-0.595,0.224-1.181,0.49-1.695
			c0.145-0.28,0.243-0.702,0.438-1.036c0.06-0.123,0.244-0.155,0.325-0.275c0.041-0.061,0-0.215,0.056-0.323
			c0.256-0.549,0.604-1.255,1.035-1.698c0.088-0.731,0.359-1.707,0.877-2.188c-0.16-0.808,0.725-1.635,0.05-2.296
			c-0.034-0.433,0.216-0.691,0.06-1.089c0.498-0.523,1.091-0.952,1.581-1.477c0.171-0.102,0.246,0.047,0.39-0.055
			c0.531-0.701,2.029-0.954,2.891-0.333c0.101,0.075,0.135,0.256,0.216,0.333c0.123,0.106,0.313,0.11,0.444,0.219
			c0.457,0.381,0.81,0.969,1.308,1.365c0.367,0.287,0.742,0.522,1.153,0.818c0.619,0.377,0.619,1.152,1.089,1.748
			c0.006,0.14,0.006,0.265-0.056,0.327c0.825,0.818-0.577,2.624-0.435,3.336c0.094,0.491,1.056,0.998,1.917,0.767
			c0.298,0.084,0.496,0.349,0.815,0.436c0.109,0.034,0.26-0.055,0.389,0c0.171,0.079,0.266,0.287,0.427,0.385
			c0.119,0.071,0.208,0,0.337,0.052c0.196,0.093,0.421,0.464,0.709,0.657c0.19,0.134,0.44,0.171,0.537,0.274
			c0.225,0.226,0.266,0.597,0.498,0.82c0.211,0.203,0.469,0.177,0.653,0.437c0,0.395,0.137,0.671,0.224,0.984
			c0.28-0.333-0.006-0.54-0.062-0.874c-0.073-0.459,0.084-0.972,0-1.478c-0.039-0.238-0.216-0.404-0.27-0.601
			c-0.104-0.396-0.008-0.731-0.109-1.039c-0.137-0.387-0.52-0.473-0.71-0.874c0.008,0.016-0.225-1.03-0.225-1.095
			c0.048-0.483,0.594-0.598,0.935-0.873c1.879-0.269,3.748-0.653,4.594-2.133c0.291-0.122,0.476-0.356,0.706-0.545
			c0.187,0.083,0.341-0.067,0.548-0.111c0.188-0.304,0.558-0.431,0.652-0.815c1.304-0.656,1.917-1.987,3.223-2.627
			c0.091-0.426,0.512-0.508,0.664-0.876c0.651-0.419,1.284-1.078,2.187-1.094c0.778,0.125,1.512-0.133,2.181-0.104
			c0.852,0.033,1.417,0.429,2.077,0.543c0.111,0.151,0.246,0.271,0.327,0.44c0.778,0.174,1.221,0.679,1.48,1.366
			c0.435,0.327,0.7,0.827,1.145,1.146c0.429,1.137,1.308,1.871,1.861,2.732c0.631,0.354,1.135,1.251,1.744,1.806
			c0.102,0.577,0.646,1.039,0.823,1.69c0.177,0.655,0.171,1.751-0.164,2.242c-0.348,0.515-1.109,0.56-1.798,0.821
			c-0.605,1.878-1.657,3.253-1.702,5.41c-0.28,0.229-0.254,0.506-0.274,0.931c-0.02,0.868-0.478,1.969-0.218,2.732
			c-0.286,0.597,0.008,1.564-0.437,1.911c0.048,0.296-0.09,0.471,0,0.657c-0.034,0.199-0.219,0.257-0.274,0.438
			c-0.21,0.9,0.017,1.765-0.053,2.623c-0.034,0.383-0.138,0.724-0.163,1.147c-0.048,0.932-0.498,1.719-0.49,2.788
			c0.006,1.145-0.437,1.654-0.873,2.623c-0.025,0.073,0.04,0.213,0,0.273c-0.02,0.03-0.15,0.021-0.162,0.054
			c-0.036,0.091,0.012,0.261,0,0.33c-0.123,0.439-0.515,0.673-0.548,1.092c-0.135,0-0.163,0.095-0.334,0.055
			c-0.483,0.521-0.754,1.244-1.416,1.588c-0.3,0.763,0.458,1.144,0.879,1.529c0.437,0.699,0.66,1.741,1.472,1.91
			c0.261-0.152,0.308-0.529,0.546-0.706c0.169-1.012,0.639-1.95,0.927-2.955c0.054-0.187,0.04-0.402,0.117-0.6
			c0.085-0.254,0.353-0.454,0.427-0.712c0.029-0.064-0.06-0.249-0.054-0.327c0.069-0.467,0.531-1.088,0.554-1.694
			c0-0.126-0.076-0.259-0.056-0.381c0.02-0.253,0.196-0.498,0.218-0.771c0.062-1.008-0.996-2.093-0.218-2.947
			c0.476-0.197,0.885-0.061,1.083,0.273c0.605,0.07,0.913,0.44,1.593,0.438c1.058,0.78,2.209,1.463,3.171,2.349
			c0.448,0.494,0.552,1.338,0.871,1.966c-0.313,0.83,0.319,1.451,0.327,2.3c-0.422,1.069-0.954,2.026-1.908,2.565
			c-0.352,0.796-1.104,1.189-1.588,1.86c0.034,0.219-0.143,0.507-0.103,0.545c-0.687,0.327-1.157,0.968-1.538,1.585
			c-0.131,0.217-0.24,0.535-0.327,0.656c-0.171,0.24-0.498,0.314-0.498,0.602c0.008,0.363,0.45,0.412,0.498,0.711
			c0.975,0.433,1.484,1.317,2.404,1.799c0.048,0.107,0.09,0.206,0.109,0.334c0.734,0.349,1.248,1.047,1.917,1.475
			c0.202,0.134,0.51,0.121,0.706,0.273c0.274,0.208,0.381,0.538,0.6,0.713c0.466,0.357,1.121,0.473,1.645,0.872
			c0.135,0.105,0.216,0.312,0.381,0.439c0.292,0.222,0.579,0.174,0.653,0.546c0.641,0.278,1.065,0.494,1.595,0.929
			c0.096,0.103,0.131,0.005,0.273,0c0.911,0.521,1.84,1.275,2.89,1.693c0.373,0.146,0.837,0.115,1.035,0.546
			c0.471,0.101,0.782,0.354,1.096,0.601c0.771,0.153,1.242,0.697,1.856,1.148c0.019,0.659,0.552,1.027,0.496,1.588
			c0.776,0.799,0.075,1.927-0.545,2.457c-1.35,0.512-2.611-0.69-3.884-0.163c-3.559-0.036-6.061,1.25-8.527,2.406
			c-1.273,0.042-2.302-0.254-3.44-0.438c-0.613-0.742-1.859-0.917-2.41-1.861c-0.044-0.114-0.234-0.088-0.322-0.164
			c-0.319-0.573-0.756-1.026-1.206-1.475c-0.381-1.132-1.139-1.539-1.587-2.57c-0.042-0.138-0.219-0.138-0.321-0.213
			c-0.28-0.972-1.173-1.312-1.532-2.19c-0.873-0.26-0.937-2.056-1.861-1.308c-0.381,0.302-0.799,1.157-1.145,1.584
			c-0.383,0.177-0.546,0.582-0.817,0.871c-0.104,0.101,0.04,0.141,0,0.328c-1.433,0.941-2.154,2.563-3.395,3.553
			c-0.048,0.223,0.083,0.405,0,0.491c-0.963,1.758-2.44,3.218-3.225,5.302c-0.619,0.794-1.396,1.099-2.785,1.094
			c-0.873-0.338-1.567-0.86-2.409-1.094c-0.393-0.594-0.95-1.111-1.414-1.692c-0.375-0.457-0.784-0.907-1.425-1.146
			c-0.014-0.597-0.778-1.051-0.77-1.698c0.008-0.092,0.12-0.197,0.168-0.327c0.181-0.5,0.042-1.179,0.321-1.475
			c-0.198-1.108,0.703-1.505,1.431-2.024c0.165-0.119,0.274-0.318,0.437-0.439c0.389-0.281,0.927-0.262,1.206-0.597
			c0.062-0.538,0.308-0.893,0.32-1.479c0.533-0.391,0.21-1.294,0.606-1.799c-0.202-0.372,0.151-0.732,0.219-1.097
			c0.056-0.36-0.096-0.811-0.062-1.199c0.033-0.314,0.26-0.569,0.273-0.821c0.042-0.453-0.109-0.926-0.056-1.369
			c0.098-0.765,0.477-1.87,0.334-2.839c-0.048-0.313-0.171-0.86-0.217-1.257c-0.111-0.907,0.06-1.872-0.062-2.788
			c-0.056-0.426-0.129-0.6-0.056-1.147c0.104-0.711-0.054-1.394,0.163-1.97c-0.034-0.14-0.04-0.32-0.163-0.382
			c-0.083-1.151,0.109-2.314,0.056-3.387c-0.014-0.363-0.206-0.701-0.212-1.043c-0.022-0.627,0.254-1.264-0.165-1.803
			c0.021-1.299,0.227-2.626,0.221-3.989c-0.008-0.447-0.192-0.91-0.173-1.366c0.05-0.816,0.104-1.728,0.056-2.625
			c-0.012-0.496-0.223-0.937-0.274-1.42c-0.06-0.61,0.078-1.24,0-1.801c-0.018-0.152-0.148-0.334-0.162-0.492
			c-0.028-0.375,0.177-0.672-0.165-0.877c-1.067,0.547-2.412,1.214-3.984,0.765c-0.716-0.571-1.569-0.942-2.571-1.095
			c0.185,0.526,0.975,0.583,1.526,0.877c0.433,0.488,0.648,0.753,0.771,1.586c0.062,0.447,0.512,0.808,0.546,1.145
			c0.062,0.734-0.45,1.254-0.546,2.079c-0.681,0.556-0.734,1.405-1.315,2.076c-0.216,0.34-1.375,0.879-1.313,1.475
			c0.032,0.284,0.563,0.632,1.042,0.331c0.45-0.045,0.935,0.13,1.152,0c0.19-0.03,0.127,0.194,0.325,0.163
			c0.636-0.007,1.086,0.128,1.64,0.328c1.237,0.46,2.164,0.777,2.402,2.022c-0.117,0.271-0.137,0.628-0.327,0.818
			c-0.034,0.628-0.198,1.396-0.544,1.916c-0.139,0.203-0.404,0.303-0.546,0.489c-0.293,0.382-0.402,0.886-0.656,1.256
			c-0.317,0.448-0.802,0.8-1.102,1.26c-0.062,0.107-0.027,0.275-0.103,0.382c-0.355,0.494-1.03,0.769-1.315,1.312
			c0.218,0.439,0.764,0.337,1.206,0.438c0.669,0.15,1.343,0.584,1.97,0.598c0.471,0.483,0.94,0.801,1.036,1.369
			c0.081,0.556-0.294,1.007-0.327,1.367c-0.096,0.893,0.135,1.274-0.381,1.917c-0.098,0.105-0.274,0.195-0.384,0.326
			c-0.176,0.19-0.307,0.449-0.442,0.544c-0.204,0.156-0.496,0.174-0.71,0.328c-0.223,0.162-0.325,0.467-0.55,0.656
			c-0.476,0.419-1.085,0.552-1.637,0.817c-0.359,0.336-0.681,0.936-0.708,1.422c0.395-0.104,0.81-0.023,1.317-0.162
			c0.496-0.138,0.918-0.636,1.361-0.766c0.871-0.256,2.2-0.096,2.295,0.604c0.098,0.679-0.496,1.024-0.49,1.799
			c-0.518,0.487-0.987,1.152-1.535,1.696c-0.296,0.305-0.748,0.487-1.034,0.768c-0.271,0.265-0.414,0.612-0.708,0.817
			c-0.26,0.174-0.579,0.215-0.825,0.438c-0.109,0.097-0.117,0.274-0.217,0.383c-0.299,0.323-0.77,0.48-1.097,0.764
			c-0.157,0.139-0.185,0.348-0.329,0.494c-0.634,0.682-1.832,1.016-2.288,1.966c-1.556,0.985-2.781,2.286-4.05,3.553
			c-0.92,0.247-0.891,0.921-1.69,1.147c-0.175,0.384-0.518,0.988-1.041,1.041c-0.171,0.014-0.431-0.163-0.763-0.218
			c-0.308-0.053-0.629,0.038-0.881,0c-0.237-0.046-0.529-0.29-0.756-0.332c-0.095-0.017-0.123,0.086-0.226,0.056
			c-0.121-0.037-0.175-0.16-0.328-0.218c-0.21-0.085-0.543-0.032-0.76-0.11c-0.533-0.187-0.95-0.526-1.317-0.82
			c-1.26-0.031-1.873-0.94-2.95-1.313c-0.327-0.292-0.498-0.738-0.762-1.093c0.039-0.297-0.069-0.44-0.063-0.708
			c-0.465-0.35-0.471-0.935-0.708-1.421c0.053-0.444,0.15-0.839,0.273-1.203c1.206-0.304,2.16-0.277,3.44-0.547
			c0.141-0.047,0.163-0.203,0.279-0.274c1.017-0.272,1.951-0.457,2.788-1.09c-1.058-0.735-1.534-2.04-2.298-3.062
			c-0.014-0.311,0.028-0.555,0.109-0.768c-0.246-0.988-0.804-2.23-0.6-3.443c0.048-0.251,0.3-0.411,0.437-0.658
			c0.09-0.159,0.054-0.36,0.109-0.435c0.219-0.283,0.655-0.464,0.879-0.438c0.273,0.035,0.383,0.258,0.6,0.381
			c0.224,0.124,0.525,0.127,0.764,0.274c0.573,0.35,0.968,0.97,1.425,1.201C246.35,53.479,246.862,54.385,247.657,55.033z
			 M275.591,26.556c0.04-0.454,0.26-0.942,0.273-1.422c0.006-0.198-0.097-0.45-0.108-0.71c-0.062-1.002,0.224-2.255-0.437-2.677
			c-0.008-0.034-0.008-0.063-0.056-0.055c-0.415,0.188-0.675,0.527-0.879,0.925c-1.063,0.611-2.604,0.2-3.769,0.168
			c-0.539,0.227-0.531,0.998-0.489,1.802c-0.363,0.28-0.355,0.809-0.384,1.204c-0.047,0.563-0.422,1.084-0.333,1.58
			c1.042-0.248,1.403-1.154,2.679-1.035c0.477-0.134,0.988-0.487,1.423-0.491c1.043-0.014,1.187,1.221,2.025,1.526
			C275.756,27.137,275.564,26.85,275.591,26.556z M251.262,24.533c-0.531,0.182-0.563,0.849-0.871,1.258
			c-0.22,0.289-0.601,0.411-0.546,0.765c-0.291,0.222-0.735,0.567-0.708,0.928c-0.825,0.604-1.029,1.513-1.643,2.352
			c-0.274,0.109-0.442,0.32-0.492,0.656c0.929-0.374,1.589-1.287,2.406-1.583c0.772-1.217,1.562-2.416,2.896-3.063
			c0.139-0.359,0.56-0.24,0.875-0.327c0.639-0.423,1.504-0.777,2.466-0.712c0.143,0.058,0.423,0.266,0.592,0.108
			c-0.082-0.229-0.278-0.313-0.265-0.49c-0.71-0.228-1.112-0.404-1.752-0.711c-0.341-0.161-0.523-0.538-0.77-0.655
			c-0.095-0.046-0.123,0.082-0.216,0c-0.234-0.197-0.35-0.644-0.813-0.544C252.203,23.327,251.427,23.836,251.262,24.533z
			 M275.373,30.164c-0.795,0.842-1.444,1.835-2.188,2.73c0.137,0.086-0.121,0.242-0.107,0.382c-0.526,0.19-0.752,0.669-1.534,0.603
			c-0.724-0.412-1.744-0.8-2.569-0.925c-0.171,1.415-0.22,2.677-0.162,4.206c-0.28,0.668-0.117,1.959,0.108,2.567
			c0.796-0.444,1.565-0.905,2.131-1.582c0.515-0.128,0.765-0.511,1.038-0.876c1.315-0.536,1.554-1.812,3.065-2.132
			c0.335-0.822,0.232-2.137,0.49-3.17c-0.272-0.497,0.313-1.343-0.163-1.804C275.447,30.164,275.415,30.164,275.373,30.164z
			 M257.499,45.301c-0.669,0.535-1.269,1.135-1.971,1.643c-0.196,1.054-0.238,1.84-0.048,3.005c1.425-0.299,1.792-1.482,2.455-2.461
			c-0.014-0.651,0.073-1.446-0.111-2.128C257.697,45.359,257.668,45.264,257.499,45.301z M270.508,59.296
			c0.504-0.144,0.706-0.607,1.198-0.767c0.081-0.284,0.341-0.39,0.442-0.656c0.9-0.49,1.425-1.562,2.343-1.855
			c0.344-0.438,0.261-0.624,0.063-1.039c-0.162-0.324-0.299-0.927-0.498-1.203c-0.081-0.116-0.245-0.173-0.327-0.273
			c-0.196-0.258-0.168-0.518-0.325-0.821c-0.22-0.429-0.621-0.711-0.825-1.039c-0.149-0.259-0.185-0.534-0.327-0.764
			c-0.373-0.62-0.817-1.164-1.146-1.695c-0.095-0.546-0.431-0.849-0.708-1.204c-1.145-0.753-1.323,0.973-1.091,1.862
			c-0.3,0.878-0.062,1.988-0.062,3.004c0,0.52,0.103,1.175,0,1.639c-0.021,0.116-0.151,0.212-0.157,0.33
			c-0.04,0.35,0.089,0.767,0.05,1.149c-0.038,0.323-0.204,0.637-0.219,0.93c-0.008,0.209,0.08,0.444,0.054,0.654
			c-0.014,0.113-0.129,0.16-0.162,0.273c-0.09,0.358,0.079,0.777-0.109,1.093c0.188,0.376,0.052,1.166,0.333,1.585
			C269.833,60.404,270.043,59.718,270.508,59.296z"/>
	</g>
</g>
<g>
	<g>
		<defs>
			<rect id="SVGID_1_" width="87.456" height="83.999"/>
		</defs>
		<clipPath id="SVGID_2_">
			<use xlink:href="#SVGID_1_"  overflow="visible"/>
		</clipPath>
		<g clip-path="url(#SVGID_2_)">
			<defs>
				<rect id="SVGID_3_" width="87.456" height="83.999"/>
			</defs>
			<clipPath id="SVGID_4_">
				<use xlink:href="#SVGID_3_"  overflow="visible"/>
			</clipPath>
			<path clip-path="url(#SVGID_4_)" fill="#FFFFFF" d="M2.221,41.997C2.224,19.981,20.805,2.135,43.729,2.135
				c22.922,0,41.504,17.846,41.504,39.862c0,22.019-18.583,39.866-41.504,39.866C20.805,81.863,2.224,64.016,2.221,41.997
				 M15.944,15.312C8.831,22.146,4.435,31.573,4.435,41.997c0,10.427,4.396,19.853,11.509,26.688
				c7.112,6.831,16.93,11.051,27.785,11.051c10.852,0,20.667-4.22,27.782-11.051c7.113-6.836,11.507-16.262,11.514-26.688
				c-0.006-10.424-4.4-19.851-11.514-26.685C64.396,8.48,54.581,4.259,43.729,4.259C32.875,4.259,23.057,8.48,15.944,15.312"/>
			<path clip-path="url(#SVGID_4_)" fill="#FFFFFF" d="M77.391,35.906c-1.946,0-3.524,1.512-3.524,3.382
				c0,1.867,1.579,3.383,3.524,3.383s3.524-1.516,3.524-3.383C80.915,37.418,79.337,35.906,77.391,35.906 M78.566,40.417h-2.352
				v-2.258h2.352V40.417z"/>
			<path clip-path="url(#SVGID_4_)" fill="#FFFFFF" d="M44.809,11.592l2.436,0.123c0.007,0.383,0.079,0.682,0.213,0.897
				c0.224,0.349,0.577,0.55,1.061,0.604c0.361,0.041,0.649-0.011,0.863-0.152c0.217-0.142,0.337-0.32,0.364-0.537
				c0.024-0.205-0.045-0.397-0.214-0.579c-0.168-0.183-0.583-0.384-1.244-0.605c-1.086-0.362-1.841-0.77-2.268-1.221
				c-0.428-0.453-0.608-0.987-0.532-1.606c0.046-0.406,0.216-0.774,0.505-1.108c0.287-0.335,0.69-0.576,1.207-0.729
				c0.516-0.153,1.201-0.182,2.059-0.086c1.049,0.116,1.826,0.394,2.332,0.828c0.505,0.436,0.698,0.761,0.706,1.591l-2.331,0.071
				c-0.023-0.362-0.139-0.527-0.323-0.712c-0.185-0.185-0.459-0.295-0.815-0.336C48.531,8,48.298,8.037,48.136,8.142
				c-0.166,0.103-0.256,0.24-0.278,0.413c-0.015,0.126,0.034,0.247,0.146,0.361c0.107,0.118,0.379,0.247,0.818,0.384
				c1.082,0.354,1.849,0.674,2.3,0.961c0.452,0.29,0.767,0.622,0.943,0.995c0.178,0.373,0.24,0.775,0.188,1.206
				c-0.062,0.507-0.262,0.959-0.606,1.353c-0.341,0.396-0.787,0.674-1.337,0.838c-0.549,0.162-1.223,0.199-2.018,0.112
				c-1.397-0.154-2.333-0.52-2.809-1.099C45.009,13.088,44.783,12.398,44.809,11.592"/>
			<path clip-path="url(#SVGID_4_)" fill="#FFFFFF" d="M59.738,9.689l2.403,0.811l-1.639,4.468
				c-0.159,0.444-0.384,0.838-0.672,1.183c-0.287,0.345-0.638,0.613-1.052,0.804c-0.415,0.19-0.813,0.291-1.191,0.296
				c-0.531,0.008-1.122-0.097-1.779-0.318c-0.378-0.129-0.783-0.292-1.212-0.495c-0.43-0.203-0.766-0.431-1.014-0.684
				c-0.245-0.253-0.441-0.562-0.588-0.925c-0.149-0.364-0.214-0.711-0.197-1.038c0.024-0.527,0.105-0.976,0.241-1.343l1.634-4.468
				l2.4,0.809L55.4,13.364c-0.15,0.407-0.15,0.767,0.002,1.077c0.154,0.31,0.437,0.536,0.857,0.676
				c0.414,0.14,0.781,0.137,1.101-0.012c0.318-0.145,0.553-0.427,0.707-0.841L59.738,9.689z"/>
			<polygon clip-path="url(#SVGID_4_)" fill="#FFFFFF" points="64.291,11.939 66.046,13.257 65.797,18.323 68.334,14.972 
				70.112,16.307 65.516,22.376 63.739,21.043 63.986,16.004 61.463,19.338 59.696,18.011 			"/>
			<polygon clip-path="url(#SVGID_4_)" fill="#FFFFFF" points="72.827,18.783 74.031,20.641 71.943,25.478 75.599,23.063 
				76.817,24.943 70.195,29.318 68.979,27.438 71.053,22.628 67.418,25.031 66.206,23.16 			"/>
			<polygon clip-path="url(#SVGID_4_)" fill="#FFFFFF" points="77.275,25.766 78.365,28.282 76.444,30.784 79.644,31.237 
				80.73,33.741 75.054,32.66 71.858,33.938 70.873,31.671 74.074,30.391 			"/>
			<path clip-path="url(#SVGID_4_)" fill="#FFFFFF" d="M5.803,41.207h9.481c1.443-13.66,10.51-27.715,23.085-35.039
				C21.468,8.146,6.008,23.589,5.803,41.207"/>
			<path clip-path="url(#SVGID_4_)" fill="#FFFFFF" d="M17.552,41.207c0,0.2,11.131,0,11.131,0
				c-0.824-9.899,4.533-25.143,11.335-34.051C33.01,10.72,18.581,23.984,17.552,41.207"/>
			<path clip-path="url(#SVGID_4_)" fill="#FFFFFF" d="M30.537,41.009H42.49V6.958C35.69,13.688,29.712,31.506,30.537,41.009"/>
			<path clip-path="url(#SVGID_4_)" fill="#FFFFFF" d="M5.803,42.79h9.481c1.443,13.661,10.51,27.715,23.085,35.045
				C21.468,75.855,6.008,60.411,5.803,42.79"/>
			<path clip-path="url(#SVGID_4_)" fill="#FFFFFF" d="M17.552,42.79c0-0.197,11.131,0,11.131,0
				c-0.824,9.899,4.533,25.145,11.335,34.052C33.01,73.281,18.581,60.015,17.552,42.79"/>
			<path clip-path="url(#SVGID_4_)" fill="#FFFFFF" d="M30.537,42.989H42.49v34.05C35.69,70.312,29.712,52.491,30.537,42.989"/>
			<path clip-path="url(#SVGID_4_)" fill="#FFFFFF" d="M81.297,45.243l-0.758,4.101c-0.127,0.683-0.417,1.174-0.876,1.473
				s-0.977,0.398-1.553,0.302c-0.48-0.083-0.874-0.284-1.171-0.604c-0.198-0.216-0.333-0.499-0.405-0.856
				c-0.234,0.483-0.545,0.817-0.935,0.998c-0.39,0.181-0.842,0.229-1.364,0.141c-0.425-0.072-0.789-0.226-1.096-0.454
				c-0.306-0.228-0.531-0.507-0.673-0.836c-0.087-0.207-0.127-0.497-0.113-0.877c0.016-0.506,0.041-0.841,0.071-1.002l0.698-3.781
				L81.297,45.243z M77.682,46.904l-0.177,0.954c-0.064,0.341-0.038,0.592,0.073,0.746c0.109,0.156,0.294,0.258,0.549,0.303
				c0.24,0.041,0.438,0.005,0.596-0.106c0.159-0.11,0.268-0.332,0.331-0.664l0.178-0.968L77.682,46.904z M74.471,46.356
				l-0.207,1.116c-0.07,0.377-0.043,0.655,0.083,0.84c0.126,0.181,0.32,0.292,0.577,0.337c0.243,0.041,0.453-0.003,0.628-0.132
				c0.172-0.127,0.297-0.382,0.367-0.768l0.206-1.109L74.471,46.356z"/>
			<path clip-path="url(#SVGID_4_)" fill="#FFFFFF" d="M70.907,55.792l1.08-2.304l-1.102-0.861l0.97-2.07l6.419,5.738l-1.035,2.213
				l-8.731-0.803l0.995-2.125L70.907,55.792z M72.743,56.078l3.061,0.449l-2.388-1.893L72.743,56.078z"/>
			<polygon clip-path="url(#SVGID_4_)" fill="#FFFFFF" points="73.841,63.152 72.445,64.738 67.117,63.958 70.623,66.808 
				69.214,68.409 62.875,63.256 64.283,61.655 69.576,62.426 66.095,59.597 67.502,58.001 			"/>
			<polygon clip-path="url(#SVGID_4_)" fill="#FFFFFF" points="66.042,69.963 64.16,71.257 62.333,68.808 62.188,72.617 
				59.686,74.338 60.082,70.361 54.748,67.927 57.066,66.329 60.339,68.111 60.502,66.357 59.324,64.774 61.205,63.48 			"/>
		</g>
	</g>
</g>
</svg>
